# xmcd CD database file
#
# Track frame offsets:
#	150
#	21197
#	45317
#	64163
#	86311
#	116392
#	137625
#	158831
#	207026
#	218112
#	255035
#	269339
#
# Disc length: 3898 seconds
#
# Revision: 10
# Processed by: cddbd v1.5.2PL0 Copyright (c) Steve Scherf et al.
# Submitted via: CDex 1.70beta2
#
DISCID=940f380c
DTITLE=Various Artist - Jazz Thing präsentiert: The Shape Of Jazz To Come (Thirsty Ear Records)
DYEAR=2003
DGENRE=Jazz
TTITLE0=The Blue Series Continuum - The Hideout
TTITLE1=Matthew Shipp - Vamp To Vibe
TTITLE2=DJ Spooky - Optometry (Alter Echo Remix)
TTITLE3=Craig Taborn - Bodies We Came Out Of
TTITLE4=David S. Ware String Ensemble - Ananda Rotation
TTITLE5=DJ Wally - Out Of The Blue
TTITLE6=Guillermo E. Brown - Das Funken
TTITLE7=Tim Berne's Science Fiction Band - Van Gundy's Retreet
TTITLE8=William Partker Qartett - Watermelon Song
TTITLE9=Mat Maneri - Sustain
TTITLE10=Antipop Consortium - Slow Horn
TTITLE11=Spring Heel Jack - Lit
EXTD=www.thirstyear.com YEAR: 2003
EXTT0=
EXTT1=
EXTT2=
EXTT3=
EXTT4=
EXTT5=
EXTT6=
EXTT7=
EXTT8=
EXTT9=
EXTT10=
EXTT11=
PLAYORDER=
